<svg xmlns="http://www.w3.org/2000/svg" version="1.1" xmlns:xlink="http://www.w3.org/1999/xlink" xmlns:svgjs="http://svgjs.dev/svgjs" width="1000" height="161" viewBox="0 0 1000 161"><g transform="matrix(1,0,0,1,-0.6056348047761162,-0.3330696103789563)"><svg viewBox="0 0 396 64" data-background-color="#fbcd08" preserveAspectRatio="xMidYMid meet" height="161" width="1000" xmlns="http://www.w3.org/2000/svg" xmlns:xlink="http://www.w3.org/1999/xlink"><g id="tight-bounds" transform="matrix(1,0,0,1,0.24008861730862918,0.13240034201399453)"><svg viewBox="0 0 395.52 63.73518254625794" height="63.73518254625794" width="395.52"><g><svg viewBox="0 0 395.52 63.73518254625794" height="63.73518254625794" width="395.52"><g><svg viewBox="0 0 395.52 63.73518254625794" height="63.73518254625794" width="395.52"><g><svg viewBox="0 0 395.52 63.73518254625794" height="63.73518254625794" width="395.52"><g><svg viewBox="0 0 395.52 63.73518254625794" height="63.73518254625794" width="395.52"><path d="M394.594 13.67C392.735 7.054 387.435 5.215 387.435 5.215 371.165-1.599 350.86-0.13 332.619 0.849 300.414 0.888 268.339 2.344 236.208 3.125 168.767 3.244 100.749 1.285 33.643 6.115 27.339 7.597-6.54 6.406 1.121 14.517 3.129 17.891 10.456 21.635 10.232 24.731 11.236 25.274 12.631 24.03 13.226 24.811 15.309 26.915 18.711 25.922 21.501 27.166 17.614 30.487 20.403 33.252 23.062 36.15 18.377 36.904 12.371 36.547 9.675 39.048 9.396 40.86 7.89 40.516 6.235 40.437 5.026 40.384 2.59 40.583 2.999 41.152 4.394 43.097-1.594 44.221 2.162 46.127-0.422 48.191 3.948 49.977 3.353 52.213 3.278 52.663 3.687 53.047 4.338 53.152 7.22 53.721 3.018 54.833 3.464 56.037 33.029 64.267 65.104 58.577 95.394 62.361 103.259 59.715 97.346 63.301 100.489 62.745 102.943 62.097 104.728 64.783 107.499 63.261 107.927 62.825 107.276 61.793 108.8 61.991 109.6 62.097 110.307 62.07 110.418 61.462 110.586 60.549 109.117 61.118 108.726 60.641 112.947 58.233 111.906 63.962 115.866 63.724 115.68 63.023 114.528 62.017 116.889 62.15 119.232 61.144 119.306 60.311 121.389 62.573 121.463 63.063 121.835 63.407 122.43 63.645 128.938 61.184 135.409 64.518 142.233 63.407 146.417 62.189 150.433 64.068 154.672 63.605 156.16 63.235 157.666 62.573 159.098 63.685 176.632 63.923 195.319 62.93 211.943 63.724 256.364 62.242 303.835 64.333 350.674 62.375 361.719 61.62 373.192 60.549 383.958 59.689 383.958 59.689 392.679 57.334 392.679 46.748S394.538 37.486 394.817 29.058C395.096 20.63 396.398 20.286 394.538 13.67Z" opacity="1" fill="#372e18" data-fill-palette-color="tertiary"></path><g transform="matrix(1,0,0,1,55.76832,26.230666666666668)"><svg width="283.98335999999995" viewBox="4 -28.75 724.1500244140625 28.75" height="11.273849212924604" data-palette-color="#fbcd08"><path d="M4-3.4L4-25.3 9.85-28.75 20.2-28.75 20.2-23.1 10.5-23.1 10.5-5.85 20-5.85 20 0 9.85 0 4-3.4ZM38.65-9.3L32.15-9.3 32.15-5.85 22.65-5.85 22.65 0 32.8 0 38.65-3.4 38.65-9.3ZM32.15-19.6L38.65-19.6 38.65-25.3 32.8-28.75 22.45-28.75 22.45-23.1 32.15-23.1 32.15-19.6ZM47.65-28.75L47.65-28.75 53.95-28.75 53.95-5.85 63.45-5.85 63.45 0 47.65 0 47.65-28.75ZM66.1-5.85L66.1-5.85 66.1 0 82.1 0 82.1-5.85 66.1-5.85ZM86.6-25.3L86.6-25.3 92.45-28.75 102.8-28.75 102.8-23.1 92.9-23.1 92.9-5.85 102.6-5.85 102.6 0 92.45 0 86.6-3.4 86.6-25.3ZM121.05-25.3L121.05-25.3 115.4-28.75 105.05-28.75 105.05-23.1 114.75-23.1 114.75-5.85 105.05-5.85 105.05 0 115.4 0 121.05-3.4 121.05-25.3ZM128.54-14.75L128.54-25.3 134.24-28.75 144.54-28.75 144.54-22.85 134.64-22.85 134.64-17.2 144.54-17.2 144.54-11.35 134.24-11.35 128.54-14.75ZM162.99-3.4L162.99-13.75 157.09-17.2 146.79-17.2 146.79-11.35 156.69-11.35 156.69-5.65 146.99-5.65 146.99 0 157.09 0 162.99-3.4ZM128.54-9.1L134.84-9.1 134.84-5.65 144.54-5.65 144.54 0 134.39 0 128.54-3.4 128.54-9.1ZM156.69-19.45L162.99-19.45 162.99-25.3 157.09-28.75 146.79-28.75 146.79-22.85 156.69-22.85 156.69-19.45ZM170.49-28.75L170.49-28.75 176.79-28.75 176.79 0 170.49 0 170.49-28.75ZM185.79 0L185.79-28.75 191.49-28.75 201.79-19.05 201.79-11.5 192.09-20.85 192.09 0 185.79 0ZM204.04-17.2L213.94-8.1 213.94-28.75 220.24-28.75 220.24 0 214.34 0 204.04-9.9 204.04-17.2ZM229.24-3.4L229.24-25.3 235.09-28.75 245.44-28.75 245.44-22.85 235.74-22.85 235.74-5.65 245.24-5.65 245.24 0 235.09 0 229.24-3.4ZM257.38-19.45L263.88-19.45 263.88-25.3 258.04-28.75 247.69-28.75 247.69-22.85 257.38-22.85 257.38-19.45ZM263.88-3.4L263.88-17.2 247.69-17.2 247.69-11.5 257.38-11.5 257.38-5.65 247.89-5.65 247.89 0 258.04 0 263.88-3.4ZM286.38-14.75L286.38-25.3 292.08-28.75 302.38-28.75 302.38-22.85 292.48-22.85 292.48-17.2 302.38-17.2 302.38-11.35 292.08-11.35 286.38-14.75ZM320.83-3.4L320.83-13.75 314.93-17.2 304.63-17.2 304.63-11.35 314.53-11.35 314.53-5.65 304.83-5.65 304.83 0 314.93 0 320.83-3.4ZM286.38-9.1L292.68-9.1 292.68-5.65 302.38-5.65 302.38 0 292.23 0 286.38-3.4 286.38-9.1ZM314.53-19.45L320.83-19.45 320.83-25.3 314.93-28.75 304.63-28.75 304.63-22.85 314.53-22.85 314.53-19.45ZM328.33-25.3L328.33-25.3 334.18-28.75 344.53-28.75 344.53-23.1 334.63-23.1 334.63-5.85 344.33-5.85 344.33 0 334.18 0 328.33-3.4 328.33-25.3ZM362.78-25.3L362.78-25.3 357.13-28.75 346.78-28.75 346.78-23.1 356.48-23.1 356.48-5.85 346.78-5.85 346.78 0 357.13 0 362.78-3.4 362.78-25.3ZM370.77-25.3L370.77-25.3 376.63-28.75 386.97-28.75 386.97-23.1 377.07-23.1 377.07-5.85 386.77-5.85 386.77 0 376.63 0 370.77-3.4 370.77-25.3ZM405.22-25.3L405.22-25.3 399.57-28.75 389.22-28.75 389.22-23.1 398.92-23.1 398.92-5.85 389.22-5.85 389.22 0 399.57 0 405.22-3.4 405.22-25.3ZM414.22 0L414.22-28.75 419.92-28.75 430.22-19.05 430.22-11.5 420.52-20.85 420.52 0 414.22 0ZM432.47-17.2L442.37-8.1 442.37-28.75 448.67-28.75 448.67 0 442.77 0 432.47-9.9 432.47-17.2ZM472.17-14.75L472.17-25.3 477.87-28.75 488.17-28.75 488.17-22.85 478.27-22.85 478.27-17.2 488.17-17.2 488.17-11.35 477.87-11.35 472.17-14.75ZM506.62-3.4L506.62-13.75 500.72-17.2 490.42-17.2 490.42-11.35 500.32-11.35 500.32-5.65 490.62-5.65 490.62 0 500.72 0 506.62-3.4ZM472.17-9.1L478.47-9.1 478.47-5.65 488.17-5.65 488.17 0 478.02 0 472.17-3.4 472.17-9.1ZM500.32-19.45L506.62-19.45 506.62-25.3 500.72-28.75 490.42-28.75 490.42-22.85 500.32-22.85 500.32-19.45ZM546.06-28.75L546.06-23.1 531.66-23.1 531.66 0 524.76 0 524.76-23.1 511.61-23.1 511.61-28.75 546.06-28.75ZM551.56-28.75L551.56-28.75 557.86-28.75 557.86-5.85 567.56-5.85 567.56 0 557.26 0 551.56-3.4 551.56-28.75ZM586.01-28.75L586.01-28.75 579.71-28.75 579.71-5.85 570.01-5.85 570.01 0 580.36 0 586.01-3.4 586.01-28.75ZM595.01 0L595.01-28.75 611.01-28.75 611.01-23.1 601.31-23.1 601.31-5.85 611.01-5.85 611.01 0 595.01 0ZM629.46-3.4L629.46-25.3 623.81-28.75 613.46-28.75 613.46-23.1 623.16-23.1 623.16-5.85 613.46-5.85 613.46 0 623.81 0 629.46-3.4ZM637.46-28.75L637.46-28.75 643.76-28.75 643.76 0 637.46 0 637.46-28.75ZM651.75-25.3L651.75-25.3 657.6-28.75 667.95-28.75 667.95-23.1 658.05-23.1 658.05-5.85 667.75-5.85 667.75 0 657.6 0 651.75-3.4 651.75-25.3ZM686.2-25.3L686.2-25.3 680.55-28.75 670.2-28.75 670.2-23.1 679.9-23.1 679.9-5.85 670.2-5.85 670.2 0 680.55 0 686.2-3.4 686.2-25.3ZM693.7-14.75L693.7-25.3 699.4-28.75 709.7-28.75 709.7-22.85 699.8-22.85 699.8-17.2 709.7-17.2 709.7-11.35 699.4-11.35 693.7-14.75ZM728.15-3.4L728.15-13.75 722.25-17.2 711.95-17.2 711.95-11.35 721.85-11.35 721.85-5.65 712.15-5.65 712.15 0 722.25 0 728.15-3.4ZM693.7-9.1L700-9.1 700-5.65 709.7-5.65 709.7 0 699.55 0 693.7-3.4 693.7-9.1ZM721.85-19.45L728.15-19.45 728.15-25.3 722.25-28.75 711.95-28.75 711.95-22.85 721.85-22.85 721.85-19.45Z" opacity="1" transform="matrix(1,0,0,1,0,0)" fill="#fbcd08" class="undefined-text-0" data-fill-palette-color="quaternary" id="text-0"></path></svg></g></svg></g></svg></g></svg></g><g></g></svg></g><defs></defs></svg><rect width="395.52" height="63.73518254625794" fill="none" stroke="none" visibility="hidden"></rect></g></svg></g></svg>